<svg fill="none" height="32" viewBox="0 0 103 32" width="103" xmlns="http://www.w3.org/2000/svg" xmlns:xlink="http://www.w3.org/1999/xlink"><clipPath id="a"><path d="m0 0h102.629v32h-102.629z"/></clipPath><mask id="b" height="9" maskUnits="userSpaceOnUse" width="10" x="63" y="8"><path d="m65.8302 9.00435c-.0435-.04352-.1141-.04352-.1573 0l-2.2687 2.27065c-.0435.0435-.0435.1141 0 .1576l4.741 4.7452c.0211.0209.0493.0327.079.0327l4.6442.0003c.0595 0 .0892-.072.0473-.1141z" fill="#fff"/></mask><g clip-path="url(#a)"><path d="m5.88623 6.07999h4.38327l-4.38327 4.38721z" fill="#a87cff"/><path d="m10.2695 10.4672h-4.38327l4.38327-4.38721z" fill="#935bff"/><g mask="url(#b)"><path d="m68.178 11.3535-2.4263-2.42802-2.426 2.42802z" fill="#7b3df5"/><path d="m63.3257 11.3538 2.426 2.4282 2.4263-2.4282z" fill="#8e54ff"/><path d="m70.6041 13.782-2.426-2.4282-2.4266 2.4282z" fill="#9f6ffd"/><path d="m65.7515 13.7822 2.4266 2.4283 2.426-2.4283z" fill="#b087ff"/><path d="m68.1777 16.2108h4.852l-2.426-2.4286z" fill="#b793ff"/></g><g fill="#000"><path d="m4.52019.945677-4.160645-.94287948c-.069641-.01578222-.135912.03720858-.135912.10867748v16.430025c0 .0705.064713.1233.133773.1091l4.160674-.8572c.05173-.0106.08888-.0562.08888-.1091v-14.62994c0-.05206-.03603-.097186-.08677-.108683z"/><path d="m11.6339.945677 4.1606-.94287948c.0697-.01578222.1359.03720858.1359.10867748v16.430025c0 .0705-.0647.1233-.1338.1091l-4.1606-.8572c-.0518-.0106-.0889-.0562-.0889-.1091v-14.62994c0-.05206.036-.097186.0868-.108683z"/><path d="m58.9987.390157c-.0617 0-.1112.049888-.1112.111427v6.037196c0 .06157-.0499.11146-.1116.11146h-6.19c-.0617 0-.1116-.04989-.1116-.11146v-6.037196c0-.061539-.0499-.111427-.1113-.111427h-3.255c-.0614 0-.1112.049888-.1112.111427v15.597316c0 .0616.0498.1115.1112.1115h3.255c.0614 0 .1113-.0499.1113-.1115v-6.12764c0-.06153.0499-.11142.1116-.11142h6.19c.0617 0 .1116.04989.1116.11142v6.12764c0 .0616.0495.1115.1112.1115h3.2541c.0614 0 .1112-.0499.1112-.1115v-15.597316c0-.061539-.0498-.111427-.1112-.111427z"/><path d="m25.7546 4.6096c.0226-.05536.1009-.05536.1236 0l2 4.88685c.018.04397-.0143.09219-.0618.09219h-4.0003c-.0475 0-.0798-.04822-.0618-.09219zm-1.4227-4.331788c-.0446 0-.0849.026687-.1024.067798l-6.6792 15.70969c-.0312.0735.0227.155.1025.155h3.3019c.0452 0 .086-.0274.103-.0693l1.3885-3.4093c.0171-.0419.0578-.0693.1031-.0693h6.5339c.0452 0 .086.0274.1031.0693l1.3887 3.4093c.0171.0419.0578.0693.1031.0693h3.3924c.08 0 .134-.0815.1027-.155l-6.6798-15.709694c-.0175-.041109-.0578-.067794-.1025-.067794z"/><path d="m34.546 13.9767c-.0454-.0395-.0506-.108-.0119-.1541l1.9151-2.2962c.0393-.047.109-.0534.1567-.0147 1.3962 1.1347 2.863 1.8513 4.6333 1.8513 1.4224 0 2.2805-.5647 2.2805-1.4916v-.0452c0-.8815-.5419-1.3333-3.1837-2.01119-3.184-.81376-5.2389-1.6953-5.2389-4.83623v-.04566c0-2.87067 2.3033-4.768745 5.5321-4.768745 2.2642 0 4.202.699439 5.79 1.947075.0457.03606.0553.10167.0224.14974l-1.6843 2.44409c-.0348.05075-.1045.06333-.1553.02861-1.3687-.93386-2.7151-1.49607-4.0179-1.49607-1.3323 0-2.0318.6098-2.0318 1.37904v.0448c0 1.03981.6772 1.37876 3.4098 2.07904 3.2058.83671 5.0125 1.98912 5.0125 4.746v.0449c0 3.1417-2.3934 4.9048-5.8032 4.9048-2.3592.0003-4.7417-.8126-6.6254-2.4597z"/><path d="m74.5107.390157c-.0614 0-.1113.049888-.1113.111427v15.597316c0 .0616.0499.1115.1113.1115h11.8122c.0617 0 .1115-.0499.1115-.1115v-2.8735c0-.0616-.0498-.1114-.1115-.1114h-8.3583c-.0614 0-.1113-.0499-.1113-.1115v-3.09933c0-.06154.0499-.11143.1113-.11143h7.2297c.0614 0 .1112-.04988.1112-.11142v-2.87328c0-.06154-.0498-.11142-.1112-.11142h-7.2297c-.0614 0-.1113-.04989-.1113-.11143v-2.98617c0-.06154.0499-.11143.1113-.11143h8.246c.0614 0 .1113-.04989.1113-.11142v-2.873586c0-.061539-.0499-.111427-.1113-.111427z"/><path d="m98.7358.390157c-.039 0-.0751.020384-.0953.05375l-3.7096 6.137823c-.0435.07197-.1481.07158-.1912-.00077l-3.6438-6.136307c-.0201-.033789-.0566-.054496-.0959-.054496h-3.7986c-.0879 0-.1409.096928-.0939.171117l5.9476 9.384106c.0112.01785.0173.03856.0173.05972v6.0938c0 .0616.0499.1115.1112.1115h3.2554c.0614 0 .1112-.0499.1112-.1115v-6.16114c0-.02125.0061-.04208.0176-.06l5.9472-9.316182c.047-.07417-.006-.171421-.094-.171421z"/><path d="m68.2238.390624c-.0297 0-.0579.011738-.079.032627l-4.8034 4.807249c-.0435.04352-.0435.11408 0 .1576l2.3001 2.30176c.0434.04348.1138.04348.1573 0l7.1792-7.185098c.0422-.042116.0124-.114138-.047-.114138z"/><path d="m24.4261 23.6415c0-.0569.0686-.0855.109-.0455l3.9016 3.8691c.0251.0249.0252.0656.0003.0906l-3.9016 3.9225c-.0402.0405-.1093.012-.1093-.0451z"/></g><path clip-rule="evenodd" d="m53.1032 24.4665c.0358.0344.0387.0911.0061.1288l-.9205 1.0625c-.0342.0396-.0943.0431-.133.0077-.6541-.5981-1.3201-.9797-2.2319-.9797-1.4793 0-2.5859 1.2238-2.5859 2.7788v.0233c0 1.5562 1.0957 2.8022 2.5974 2.8022.9575 0 1.5883-.3806 2.278-1.0257.0367-.0345.0943-.0333.1298.0026l.9201.9341c.0348.0355.0358.0923.0022.1289-.8424.9159-1.8332 1.478-3.3765 1.478-2.4298 0-4.24-1.9002-4.24-4.2967v-.0234c0-2.3723 1.7747-4.3199 4.2864-4.3199 1.5423 0 2.473.5375 3.2678 1.2985z" fill="#9f6ffd" fill-rule="evenodd"/><path clip-rule="evenodd" d="m30.4336 31.5718c0 .0531.0429.096.0959.096h6.0984c.0528 0 .096-.0429.096-.096v-1.2791c0-.0531-.0432-.096-.096-.096h-4.4792c-.053 0-.0959-.043-.0959-.096v-1.8045c0-.053.0429-.096.0959-.096h3.8967c.0528 0 .0959-.043.0959-.096v-1.2908c0-.053-.0431-.096-.0959-.096h-3.8967c-.053 0-.0959-.043-.0959-.096v-1.7462c0-.053.0429-.096.0959-.096h4.4211c.0527 0 .0959-.043.0959-.096v-1.2791c0-.053-.0432-.096-.0959-.096h-6.0403c-.053 0-.0959.043-.0959.096z" fill="#9f6ffd" fill-rule="evenodd"/><path clip-rule="evenodd" d="m43.4686 23.3081c-.0314 0-.0608.0154-.0787.0412l-1.8927 2.7271c-.0384.0553-.1202.055-.1579-.0006l-1.8595-2.7258c-.0179-.0262-.0476-.0419-.0793-.0419h-1.6826c-.0777 0-.1231.0877-.0784.1513l2.7505 3.9028c.0237.0333.0234.0777 0 .111l-2.8665 4.0431c-.0451.0635.0003.1515.078.1515h1.636c.0316 0 .061-.0155.0789-.0415l1.9871-2.8903c.0383-.0554.1199-.0555.1579-.0002l1.9982 2.8907c.0179.0259.0473.0413.079.0413h1.6823c.078 0 .1234-.0879.0784-.1514l-2.8781-4.066c-.0237-.0333-.0234-.078.0003-.1112l2.7611-3.8794c.0454-.0635 0-.1517-.078-.1517z" fill="#9f6ffd" fill-rule="evenodd"/><path clip-rule="evenodd" d="m54.4048 31.5718c0 .0531.0428.096.0959.096h1.4272c.053 0 .0959-.0429.0959-.096v-3.2523c0-.053.0428-.096.0959-.096h3.5124c.0527 0 .0959.043.0959.096v3.2523c0 .0531.0429.096.0959.096h1.4272c.0531 0 .0959-.0429.0959-.096v-8.1677c0-.053-.0428-.096-.0959-.096h-1.4272c-.053 0-.0959.043-.0959.096v3.2056c0 .053-.0432.096-.0959.096h-3.5124c-.0531 0-.0959-.043-.0959-.096v-3.2056c0-.053-.0429-.096-.0959-.096h-1.4272c-.0531 0-.0959.043-.0959.096z" fill="#9f6ffd" fill-rule="evenodd"/><path clip-rule="evenodd" d="m62.4485 31.5334c-.0275.0635.0188.1344.0879.1344h1.462c.0384 0 .0733-.023.0883-.0584l.7887-1.8563c.0151-.0354.0499-.0584.0883-.0584h3.6051c.0387 0 .0735.0232.0882.0588l.7779 1.8555c.015.0356.0499.0588.0882.0588h1.5084c.0694 0 .1158-.0709.088-.1344l-3.5853-8.2261c-.0154-.035-.0499-.0577-.0879-.0577h-1.3243c-.0381 0-.0726.0227-.0879.0577zm3.2013-3.2982h2.2329c.0687 0 .1154-.0707.0879-.134l-1.1209-2.6003c-.0336-.0774-.1433-.0773-.1765.0002l-1.1117 2.6003c-.0271.0634.0192.1338.0883.1338z" fill="#9f6ffd" fill-rule="evenodd"/><path clip-rule="evenodd" d="m72.3203 31.6678c-.0531 0-.0959-.0429-.0959-.096v-8.1677c0-.053.0428-.096.0959-.096h1.3236c.0298 0 .0579.0138.0761.0372l4.0284 5.2119c.0563.0724.172.0328.172-.0587v-5.0944c0-.053.0429-.096.096-.096h1.4038c.0531 0 .0959.043.0959.096v8.1677c0 .0531-.0428.096-.0959.096h-1.1957c-.0297 0-.0576-.0137-.0758-.0372l-4.1569-5.3756c-.056-.0723-.1717-.0327-.1717.0588v5.258c0 .0531-.0429.096-.0959.096zm5.8786-.1252c-.0016-.0017-.0032-.0035-.0045-.0053.0023.0029.0045.0056.0071.0083z" fill="#9f6ffd" fill-rule="evenodd"/><path clip-rule="evenodd" d="m87.4118 25.5275c.0397.0336.0988.0286.1321-.0111l.9086-1.0858c.0329-.0394.0278-.0981-.0112-.1314-.8549-.7259-1.7613-1.1312-3.1936-1.1312-2.5242 0-4.2983 1.983-4.2983 4.3199v.0234c0 1.2132.4275 2.2882 1.1843 3.0603.757.7723 1.8386 1.2364 3.137 1.2364 1.4713 0 2.6332-.595 3.4616-1.2947.0211-.0177.0332-.0438.0332-.0714v-3.43c0-.0531-.0432-.096-.0959-.096h-3.466c-.0528 0-.096.0429-.096.096v1.2557c0 .0531.0432.096.096.096h1.8933c.0531 0 .0959.043.0959.096v1.2318c0 .0309-.0147.06-.0403.0776-.4767.3298-1.1138.5445-1.8351.5445-.8086 0-1.4765-.2998-1.9426-.7994-.4668-.5001-.7363-1.2061-.7363-2.0262v-.0233c0-1.5214 1.1193-2.7788 2.551-2.7788.9985 0 1.6066.3159 2.2223.8417z" fill="#9f6ffd" fill-rule="evenodd"/><path clip-rule="evenodd" d="m90.4242 31.6678c-.0531 0-.0959-.0429-.0959-.096v-8.1677c0-.053.0428-.096.0959-.096h6.04c.0531 0 .096.043.096.096v1.2791c0 .053-.0429.096-.096.096h-4.421c-.0527 0-.0959.043-.0959.096v1.7462c0 .053.0432.096.0959.096h3.897c.0528 0 .0959.043.0959.096v1.2908c0 .053-.0431.096-.0959.096h-3.897c-.0527 0-.0959.043-.0959.096v1.8045c0 .053.0432.096.0959.096h4.4792c.0531 0 .0959.0429.0959.096v1.2791c0 .0531-.0428.096-.0959.096z" fill="#9f6ffd" fill-rule="evenodd"/></g></svg>