<svg role="img" aria-labelledby="title" xmlns="http://www.w3.org/2000/svg" fill="#004fff" viewBox="0 0 120 50"><title id="title">Avenir Group</title><ellipse cx="97.869" cy="5.184" rx="3.243" ry="3.224"></ellipse><path d="M100.46 10.479v22.033h-5.183V10.479z"></path><ellipse cx="116.415" cy="13.703" rx="3.243" ry="3.224"></ellipse><path d="M110.304 10.478v22.033h-5.184V10.478zM72.685 42.938h-2.221c-.44-.81-1.241-1.235-2.262-1.235-1.723 0-2.924 1.222-2.924 3.128s1.214 3.155 3.007 3.155c1.489 0 2.441-.851 2.731-2.21h-3.31V44.31h5.214v1.674c-.386 1.948-2.139 3.732-4.703 3.732-2.801 0-4.925-2.018-4.925-4.884s2.124-4.897 4.91-4.897c2.152 0 3.862 1.084 4.483 3.005zM77.931 39.933c2.368 0 3.55 1.36 3.55 2.999 0 1.19-.662 2.396-2.24 2.817l2.352 3.966h-2.282l-2.17-3.811h-.93v3.81H74.24v-9.781zm-.07 1.625h-1.65v2.872h1.65c1.1 0 1.591-.574 1.591-1.458s-.493-1.416-1.592-1.416zM87.553 49.715c-2.71 0-4.925-2.025-4.925-4.899s2.214-4.883 4.925-4.883 4.91 2.024 4.91 4.883-2.188 4.899-4.91 4.899m0-1.71c1.734 0 2.93-1.246 2.93-3.189 0-1.942-1.196-3.16-2.93-3.16s-2.943 1.217-2.943 3.16 1.198 3.188 2.943 3.188M93.823 39.933h1.953v5.994c0 1.332.725 2.026 1.967 2.026s1.98-.694 1.98-2.026v-5.994h1.967v5.98c0 2.553-1.84 3.802-3.975 3.802s-3.892-1.25-3.892-3.803zM106.754 45.958h-1.648v3.757h-1.973v-9.782h3.621c2.368 0 3.55 1.33 3.55 3.026 0 1.485-1.013 3-3.55 3m-.084-1.583c1.113 0 1.606-.546 1.606-1.414s-.493-1.43-1.606-1.43h-1.564v2.846h1.564zM44.367 10.44l-5.963 15.173a.64.64 0 0 1-1.186.006l-6.15-15.181h-5.237l8.779 21.673a.64.64 0 0 0 .592.398h1.581c.262 0 .499-.16.594-.403l8.515-21.668h-1.526zM15.022.285H13.44a.64.64 0 0 0-.594.404L.342 32.511h1.525L12.405 5.694l5.915 14.6H8.584v.249c0 .7.57 1.269 1.275 1.269h8.214c.52 0 .99.314 1.183.794l4.013 9.905h5.238L15.613.683a.64.64 0 0 0-.591-.398M68.186 21.812c.024-.306.034-.623.034-.939 0-3.494-1.853-8.604-7.349-10.142-.748-.21-1.542-.254-2.348-.254-6.057 0-10.961 4.929-10.961 11.013q0 .54.052 1.068c.533 5.585 5.213 9.952 10.91 9.952 5.071 0 7.502-2.054 8.943-3.868a.6.6 0 0 0 .128-.369c0-.59-.718-.87-1.13-.447-1.609 1.651-3.935 3.002-7.015 2.708-4.124-.393-6.387-4.282-6.387-9.375s2.665-9.305 6.103-9.305c3.44 0 5.48 3.148 5.492 8.44h-9.642v.248c0 .7.571 1.268 1.276 1.268h11.897zM77.705 10.477V32.51h-5.058V10.477zM85.43 10.479h-3.738c-.274 0-.355.37-.106.484l2.266 1.03a2.68 2.68 0 0 1 1.577 2.442v18.076h5.184V15.635c0-2.848-2.32-5.156-5.184-5.156z"></path></svg>